<svg width="119" height="37" viewBox="0 0 119 37" fill="none" xmlns="http://www.w3.org/2000/svg">
<g clip-path="url(#clip0_72_607)">
<path d="M107.222 28.2416H12.5198C10.4676 28.2416 8.61353 27.9341 6.95762 27.3177C5.30102 26.702 3.91732 25.8031 2.80447 24.6211C1.6923 23.4399 0.901027 22.0069 0.431338 20.3221C-0.0383509 18.6381 -0.124746 16.7149 0.171466 14.5525C0.442995 12.5414 1.06148 10.6935 2.02554 9.00945C2.9896 7.32542 4.18816 5.87986 5.62192 4.6728C7.05498 3.46643 8.66838 2.52992 10.4607 1.86328C12.2524 1.19733 14.125 0.864014 16.0785 0.864014C18.032 0.864014 19.8106 1.20361 21.4179 1.88211C23.0244 2.5606 24.3718 3.50338 25.4592 4.71045C26.5467 5.91682 27.3442 7.3568 27.8509 9.02828C28.3569 10.7005 28.4749 12.5414 28.2033 14.5525C28.0552 15.5078 27.8139 16.438 27.4799 17.3432C27.146 18.2483 26.7134 19.1032 26.182 19.9072C25.6499 20.7119 25.0142 21.4344 24.2723 22.0752C23.5304 22.7161 22.6781 23.2383 21.7141 23.64L21.6771 23.7153H113.713L107.221 28.2403L107.222 28.2416ZM6.17937 14.5532C6.0059 15.71 6.06144 16.7909 6.34599 17.7964C6.62986 18.802 7.08104 19.6757 7.69952 20.417C8.31731 21.1589 9.0839 21.7433 9.9986 22.1707C10.9126 22.5982 11.9267 22.8116 13.0389 22.8116C14.1511 22.8116 15.22 22.5982 16.2465 22.1707C17.2716 21.7433 18.1986 21.1589 19.0276 20.417C19.8552 19.6757 20.5477 18.802 21.1038 17.7964C21.6599 16.7916 22.0247 15.71 22.1975 14.5532C22.3456 13.397 22.2777 12.3162 21.9938 11.3099C21.7093 10.3044 21.2581 9.43064 20.6403 8.68938C20.0218 7.94813 19.2559 7.36377 18.3412 6.93561C17.4265 6.50815 16.4131 6.29477 15.3009 6.29477C14.1888 6.29477 13.1191 6.50885 12.0933 6.93561C11.0676 7.36307 10.1405 7.94813 9.31223 8.68938C8.48393 9.43134 7.79208 10.3051 7.236 11.3099C6.67992 12.3155 6.32748 13.397 6.17937 14.5532Z" fill="#FF4747"/>
<path d="M41.7164 21.7879H37.6359L37.891 19.8856H37.8341C37.6448 20.1548 37.4138 20.4239 37.1395 20.6924C36.8652 20.9616 36.5443 21.2015 36.1761 21.4127C35.8079 21.6247 35.3965 21.797 34.9433 21.9316C34.49 22.0654 34.008 22.1331 33.4979 22.1331C32.4207 22.1331 31.5711 21.9643 30.9471 21.6289C30.3232 21.2935 29.8699 20.827 29.5867 20.2315C29.3036 19.636 29.152 18.9345 29.1335 18.1277C29.1143 17.3208 29.1712 16.4464 29.3036 15.505L30.3808 7.78146H34.6313L33.6679 14.6403C33.611 15.0441 33.5637 15.4618 33.526 15.8941C33.4876 16.3265 33.5164 16.7253 33.611 17.09C33.7056 17.4554 33.8846 17.7532 34.1492 17.9833C34.4139 18.2141 34.8198 18.3292 35.3677 18.3292C35.9156 18.3292 36.3736 18.2281 36.7418 18.0265C37.11 17.825 37.4076 17.5558 37.6345 17.2197C37.8615 16.8836 38.0357 16.5043 38.1591 16.081C38.2818 15.6584 38.3716 15.2163 38.4286 14.7554L39.3919 7.78076H43.6424L41.7157 21.7872L41.7164 21.7879Z" fill="#FF4747"/>
<path d="M45.5708 7.78138H49.8213L47.8946 21.7878H43.644L45.5708 7.78138ZM45.8259 3.3722C45.8828 3.02633 45.9959 2.69998 46.166 2.39246C46.336 2.08564 46.5486 1.82135 46.8036 1.5996C47.0587 1.37925 47.3467 1.20143 47.6683 1.06615C47.9892 0.932264 48.3204 0.864624 48.6605 0.864624C49.3406 0.864624 49.8837 1.10938 50.2896 1.5996C50.6955 2.08982 50.8512 2.68046 50.7573 3.3722C50.7189 3.71807 50.6153 4.04512 50.4453 4.35194C50.2752 4.65946 50.0627 4.92375 49.8076 5.1448C49.5525 5.36585 49.2645 5.54367 48.943 5.67825C48.6214 5.81283 48.2909 5.87978 47.9508 5.87978C47.6107 5.87978 47.2987 5.81283 47.0155 5.67825C46.7323 5.54436 46.4958 5.36585 46.3072 5.1448C46.118 4.92444 45.9815 4.66016 45.8965 4.35194C45.8115 4.04512 45.7875 3.71807 45.8259 3.3722Z" fill="#FF4747"/>
<path d="M52.825 0H57.0756L55.2338 13.3147L60.7035 7.78144H65.9181L59.5701 14.0929L64.1326 21.7879H58.7767L55.0926 14.6982H55.0357L54.0723 21.7879H49.8218L52.825 0Z" fill="#FF4747"/>
<path d="M75.6948 11.9026C75.1847 11.1154 74.4099 10.7214 73.3711 10.7214C73.0118 10.7214 72.6532 10.8078 72.2939 10.9808C71.9346 11.1537 71.7268 11.4515 71.6706 11.874C71.6137 12.2199 71.7556 12.4744 72.0957 12.6376C72.4358 12.8008 72.8609 12.9451 73.3711 13.07C73.8812 13.1955 74.4339 13.3294 75.0291 13.4737C75.6242 13.6181 76.1673 13.844 76.6582 14.1508C77.1492 14.4583 77.5318 14.876 77.806 15.4046C78.0796 15.9332 78.1605 16.6396 78.0467 17.5231C77.9336 18.4261 77.6401 19.1708 77.1684 19.7566C76.6959 20.343 76.1344 20.8137 75.4823 21.1687C74.8302 21.5243 74.1171 21.774 73.343 21.9183C72.5682 22.0626 71.8125 22.1345 71.0761 22.1345C70.1127 22.1345 69.1583 21.995 68.2141 21.7168C67.2692 21.4385 66.504 20.9434 65.9185 20.2322L68.8943 17.3215C69.2344 17.8215 69.6259 18.2009 70.0702 18.4603C70.5139 18.7197 71.0569 18.8494 71.6994 18.8494C72.1904 18.8494 72.6436 18.7776 73.0598 18.6332C73.4753 18.4889 73.7119 18.2253 73.7681 17.8404C73.825 17.4756 73.6872 17.2016 73.3574 17.0189C73.0269 16.8362 72.6018 16.6828 72.082 16.558C71.5623 16.4332 71.0048 16.2986 70.4103 16.1542C69.8152 16.0099 69.2673 15.7937 68.7668 15.5057C68.2662 15.2177 67.874 14.8098 67.5908 14.2812C67.3076 13.7533 67.2315 13.0469 67.3639 12.1627C67.477 11.3371 67.7417 10.6258 68.1572 10.0303C68.5727 9.43481 69.0781 8.94529 69.6732 8.56037C70.2684 8.17614 70.9246 7.89303 71.6425 7.71033C72.3604 7.52763 73.0783 7.43628 73.7962 7.43628C74.7034 7.43628 75.6002 7.57086 76.4882 7.84003C77.3761 8.1092 78.094 8.58965 78.6419 9.2807L75.6948 11.9033V11.9026Z" fill="#FF4747"/>
<path d="M87.9148 3.91553H91.1169L96.3048 21.7879H91.9363L90.9435 18.0015H84.1175L82.1318 21.7879H77.8628L87.9155 3.91553H87.9148ZM88.6841 9.11617L85.7803 14.6697H90.0747L88.6848 9.11617H88.6841Z" fill="#FF4747"/>
<path d="M100.452 0H104.703L101.699 21.7879H97.4482L100.452 0Z" fill="#FF4747"/>
<path d="M117.593 19.3667C116.799 20.2509 115.85 20.9329 114.744 21.4127C113.639 21.8924 112.529 22.133 111.415 22.133C110.301 22.133 109.384 21.9601 108.496 21.6142C107.608 21.2683 106.867 20.7739 106.272 20.1303C105.676 19.4867 105.242 18.7133 104.968 17.8103C104.694 16.9073 104.633 15.8989 104.784 14.7839C104.934 13.6696 105.27 12.6613 105.789 11.7575C106.309 10.8545 106.956 10.0812 107.731 9.43753C108.505 8.7939 109.384 8.2988 110.366 7.95362C111.348 7.60775 112.369 7.43481 113.427 7.43481C114.409 7.43481 115.279 7.60775 116.034 7.95362C116.79 8.2995 117.404 8.7946 117.876 9.43753C118.348 10.0812 118.674 10.8545 118.854 11.7575C119.033 12.6606 119.047 13.6696 118.896 14.7839L118.698 16.1381H108.836C108.893 16.9644 109.171 17.6227 109.672 18.1122C110.172 18.6025 110.838 18.8472 111.67 18.8472C112.369 18.8472 112.978 18.6889 113.498 18.3716C114.018 18.0544 114.494 17.6464 114.929 17.1471L117.593 19.366V19.3667ZM114.844 13.1996C114.957 12.4695 114.805 11.8454 114.391 11.3266C113.975 10.8078 113.38 10.5484 112.605 10.5484C112.133 10.5484 111.708 10.6251 111.33 10.7792C110.952 10.9333 110.621 11.1299 110.338 11.3698C110.055 11.6104 109.819 11.8886 109.63 12.2059C109.441 12.5232 109.308 12.8544 109.233 13.2003H114.844V13.1996Z" fill="#FF4747"/>
<path d="M109.658 23.7159H116.19C116.919 23.7159 117.135 24.7243 116.473 25.0339L90.9803 36.9344C90.3995 37.2057 89.8057 36.5851 90.0882 36.0021L94.7494 26.3734" fill="#FF4747"/>

</g>
<defs>
<clipPath id="clip0_72_607">
<rect width="119" height="37" fill="white"/>
</clipPath>
</defs>
</svg>


